<?xml version="1.0" encoding="UTF-8" standalone="no"?><!DOCTYPE svg PUBLIC "-//W3C//DTD SVG 1.1//EN" "http://www.w3.org/Graphics/SVG/1.1/DTD/svg11.dtd"><svg width="100%" height="100%" viewBox="0 0 32 32" version="1.1" xmlns="http://www.w3.org/2000/svg" xmlns:xlink="http://www.w3.org/1999/xlink" xml:space="preserve" xmlns:serif="http://www.serif.com/" style="fill-rule:evenodd;clip-rule:evenodd;stroke-linejoin:round;stroke-miterlimit:1.41421;"><path d="M16,7c-3,0 -14,2 -14,9c0,7 4,7 8,8l1,4l1,-2l8,0l1,2l1,-4c4,-1 8,-1 8,-8c0,-7 -11,-9 -14,-9m-12,11c0,-2.194 1.806,-4 4,-4c2.194,0 4,1.806 4,4c0,2.194 -1.806,4 -4,4c-2.194,0 -4,-1.806 -4,-4m16,0c0,-2.194 1.806,-4 4,-4c2.194,0 4,1.806 4,4c0,2.194 -1.806,4 -4,4c-2.194,0 -4,-1.806 -4,-4" style="fill-rule:nonzero;"/></svg>